<svg width="144" height="106" viewBox="0 0 144 106" fill="none" xmlns="http://www.w3.org/2000/svg">
<path d="M6.87422 35.8325C5.33574 35.5536 4.89628 35.9968 4.8433 37.8229L5.69643 56.5C4.23016 59.8256 4.314 61.5767 6.06185 64.5L2 71.6603L4.43711 78.6268L2 81.6124L3.62474 84.1005L6.06185 91.067C3.24329 90.8291 2.44861 91.3089 2.81237 93.555C3.54496 98.3158 5.46321 99.1999 9.71752 100.522C10.8699 103.445 12.2103 104.04 14.9979 104.502L32.8701 105H47.8989C53.3356 103.113 52.5492 104.631 53.9917 102.5C54.3361 101.991 56 98.5 55.5 96.5C55 94.5 55.0838 93.3724 55 90.5C57.3708 84.4617 56.0389 79.396 55 77C53.9611 74.604 54.6937 68.9104 54 65.5C56.518 60.5289 58.0954 53.7414 55 48.7704L53.9917 25.8804C54.0418 23.3865 53.9388 22.0353 51.5546 20.4067C49.994 19.9386 49.3736 20.2727 49.1175 22.8947V37.8229C49.1816 40.9483 48.5544 42.0301 47.4927 42.3014C45.822 42.0544 45.5493 41.5868 45.4618 39.3158V9.95694C45.3314 8.54648 45.1873 7.76069 43.0247 6.47368C41.3344 6.21224 40.7253 6.81413 40.5876 9.95694V22.8947C40.4766 23.8182 40.1303 24.4046 37.7443 25.8804C35.8218 26.3816 35.1163 26.076 34.901 23.89V8.46411C34.4464 5.82311 34.7788 1.72439 31.6515 1C29.9404 1.14415 28.9476 4.60407 28.8082 8.46411V35.3349C28.6374 37.4846 28.233 38.2267 26.3711 37.8229C25.5618 37.6071 25.0976 37.865 24.3402 35.8325L23.5 23.89C22.8367 22.213 23.2764 19.0919 22 18.5C20.6029 18.029 21.0989 27.373 21 30L19.8721 45.2871C19.8907 47.1672 19.6134 47.8304 17.8412 47.2775C16.6385 46.6327 16.1973 46.278 16.2165 46.2823V24.8852C16.0725 23.6119 16.224 19.5476 14.5917 19.4115C13.3807 19.2178 12.6349 23.1639 12.5608 24.8852V47.2775C12.4362 49.3961 12.0817 50.2027 9.31133 48.7704C8.71639 48.3705 8.53832 48.0421 8.49896 47.2775V37.8229C8.51224 36.9689 8.49117 36.4935 6.87422 35.8325Z" fill="#6E2E00"/>
<path d="M18.5 5.5C18.6258 2.05948 19.2837 1.5605 21 2C22.3153 2.11321 21.3836 3.17509 22 7.5C22.2654 11.1358 22.4727 12.2681 19.8721 13C18.1803 13.3952 17.6034 12.5456 18.5 5.5Z" fill="#6E2E00"/>
<path d="M3.5 24.5L5.5 21.5C6.37752 16.8249 6.93181 18.1279 8 25.5C7.35092 29.0142 6.80269 30.219 5 29C3.60232 27.408 3.32471 26.4129 3.5 24.5Z" fill="#6E2E00"/>
<path d="M6.87422 35.8325C5.33574 35.5536 4.89628 35.9968 4.8433 37.8229L5.69643 56.5C4.23016 59.8256 4.314 61.5767 6.06185 64.5L2 71.6603L4.43711 78.6268L2 81.6124L3.62474 84.1005L6.06185 91.067C3.24329 90.8291 2.44861 91.3089 2.81237 93.555C3.54496 98.3158 5.46321 99.1999 9.71752 100.522C10.8699 103.445 12.2103 104.04 14.9979 104.502L32.8701 105H47.8989C53.3356 103.113 52.5492 104.631 53.9917 102.5C54.3361 101.991 56 98.5 55.5 96.5C55 94.5 55.0838 93.3724 55 90.5C57.3708 84.4617 56.0389 79.396 55 77C53.9611 74.604 54.6937 68.9104 54 65.5C56.518 60.5289 58.0954 53.7414 55 48.7704L53.9917 25.8804C54.0418 23.3865 53.9388 22.0353 51.5546 20.4067C49.994 19.9386 49.3736 20.2727 49.1175 22.8947V37.8229C49.1816 40.9483 48.5544 42.0301 47.4927 42.3014C45.822 42.0544 45.5493 41.5868 45.4618 39.3158V9.95694C45.3314 8.54648 45.1873 7.76069 43.0247 6.47368C41.3344 6.21224 40.7253 6.81413 40.5876 9.95694V22.8947C40.4766 23.8182 40.1303 24.4046 37.7443 25.8804C35.8218 26.3816 35.1163 26.076 34.901 23.89V8.46411C34.4464 5.82311 34.7788 1.72439 31.6515 1C29.9404 1.14415 28.9476 4.60407 28.8082 8.46411V35.3349C28.6374 37.4846 28.233 38.2267 26.3711 37.8229C25.5618 37.6071 25.0976 37.865 24.3402 35.8325L23.5 23.89C22.8367 22.213 23.2764 19.0919 22 18.5C20.6029 18.029 21.0989 27.373 21 30L19.8721 45.2871C19.8907 47.1672 19.6134 47.8304 17.8412 47.2775C16.6385 46.6327 16.1973 46.278 16.2165 46.2823V24.8852C16.0725 23.6119 16.224 19.5476 14.5917 19.4115C13.3807 19.2178 12.6349 23.1639 12.5608 24.8852V47.2775C12.4362 49.3961 12.0817 50.2027 9.31133 48.7704C8.71639 48.3705 8.53832 48.0421 8.49896 47.2775V37.8229C8.51224 36.9689 8.49117 36.4935 6.87422 35.8325Z" stroke="#6E2E00"/>
<path d="M18.5 5.5C18.6258 2.05948 19.2837 1.5605 21 2C22.3153 2.11321 21.3836 3.17509 22 7.5C22.2654 11.1358 22.4727 12.2681 19.8721 13C18.1803 13.3952 17.6034 12.5456 18.5 5.5Z" stroke="#6E2E00"/>
<path d="M3.5 24.5L5.5 21.5C6.37752 16.8249 6.93181 18.1279 8 25.5C7.35092 29.0142 6.80269 30.219 5 29C3.60232 27.408 3.32471 26.4129 3.5 24.5Z" stroke="#6E2E00"/>
<circle cx="49" cy="81" r="6" fill="#6E2E00"/>
<circle cx="6" cy="72" r="6" fill="#6E2E00"/>
<circle cx="51" cy="73" r="6" fill="#6E2E00"/>
<circle cx="6" cy="81" r="6" fill="#6E2E00"/>
<path d="M39.8363 80H10.6451C8.54334 80 5.65432 81.8391 6.11314 83.8902C6.66425 86.3538 8.83742 86.5199 11.3617 86.5545L39.6984 86.9427C42.3672 86.9792 45.8971 86.1152 45.8594 83.4464C45.8229 80.8587 42.4242 80 39.8363 80Z" fill="#CF2806" stroke="#CF2806"/>
<path d="M6 85C29.9932 87.0503 40.2911 86.7196 46.5 84C46.2368 85.4398 45.573 86.1594 43 87C42.007 87.5471 27.6389 88.6605 9 87C7.87444 86.5768 6.47182 86.2197 6 85Z" fill="#A41510"/>
<path d="M39.9527 68.5H10.7615C8.65979 68.5 5.77077 70.3391 6.22959 72.3902C6.78071 74.8538 8.95388 75.0199 11.4782 75.0545L39.8149 75.4427C42.4837 75.4792 46.0135 74.6152 45.9759 71.9464C45.9393 69.3587 42.5406 68.5 39.9527 68.5Z" fill="#CF2806" stroke="#CF2806"/>
<path d="M6.00008 73C11.4873 75.3941 36.277 76.2633 46.5 72.5C46.3282 73.4978 46.6783 75.1375 43.9606 75.621C42.9563 75.9795 27.85 76.588 9 75.5C7.47523 75.2404 5.71905 73.7289 6.00008 73Z" fill="#A41510"/>
<path d="M37.4859 91.5H10.5016C9.2194 91.5 8.24503 92.698 8.62341 93.9231C9.60405 97.098 11.0029 98.4559 15.5 100.5C21 103 38 102.5 40 101.5C41.9442 100.528 43.427 94.8627 38.4447 91.7604C38.1585 91.5821 37.8232 91.5 37.4859 91.5Z" fill="#FFA245" stroke="#FFA245"/>
<path d="M10.5001 98C31.742 102.191 45.6589 106.054 39 91.5C41.3512 93.3924 41.7718 94.1805 42.5001 97C42.1307 99.8746 41.5789 101.174 39.5001 102.5C31.1937 102.922 25.0758 103.655 16.0001 101.5C12.1235 99.3937 10.264 98.3474 10.5001 98Z" fill="url(#paint0_linear_142_22)"/>
<path d="M20.5 50.0001C12.4573 52.0307 9.61619 54.9401 7.99553 61.6467C7.70188 62.8619 8.65336 64.0001 9.90354 64.0001H39.6299C39.8746 64.0001 40.1181 63.9554 40.346 63.8664C42.702 62.9464 44.0383 62.1534 44.9553 57.7207C44.9852 57.576 44.9983 57.4238 44.9936 57.2762C44.8619 53.1504 44.0177 51.278 39.6772 50.0493C39.561 50.0165 39.4372 49.9947 39.3169 49.9842C33.2932 49.4575 30.7703 48.7762 20.5 50.0001Z" fill="#FFA245" stroke="#FFA245"/>
<path d="M8.00003 59.5C35.0058 68.167 49.2164 62.0001 39 49.5C43.5075 50.3039 43.5474 50.8881 45 53.5C46.6403 57.5381 44.5 63 41 64.5C37.5 66 26.2988 65.0098 9.50003 64.5C6.5179 64.0064 5.92332 64.4141 8.00003 59.5Z" fill="url(#paint1_linear_142_22)"/>
<path d="M62.4746 39L65.7969 24.5332L63.1602 11.5781H69.207L70.8066 21.5273L72.2305 11.5781H78.2949L75.6582 24.5332L78.9629 39H72.7051L70.7539 27.5566L68.75 39H62.4746ZM81.2473 39V11.5781H87.2239V39H81.2473ZM97.7525 39.2812C94.9283 39.2812 92.8892 38.5781 91.6353 37.1719C90.3931 35.7656 89.772 33.5273 89.772 30.457V29.4551H95.8892V31.3008C95.8892 32.0156 95.9947 32.5781 96.2056 32.9883C96.4283 33.3867 96.8091 33.5859 97.3482 33.5859C97.9107 33.5859 98.2974 33.4395 98.5084 33.1465C98.731 32.8418 98.8423 32.4023 98.8423 31.8281C98.8423 31.0664 98.5845 30.4219 98.0689 29.8945C97.565 29.3672 96.7271 28.6523 95.5552 27.75L92.8834 25.6758C91.7466 24.7969 90.9439 23.8242 90.4752 22.7578C90.0064 21.6914 89.772 20.3965 89.772 18.873C89.772 16.4941 90.3814 14.6367 91.6002 13.3008C92.8306 11.9648 94.606 11.2969 96.9263 11.2969C99.7623 11.2969 101.772 12.0352 102.956 13.5117C104.151 14.9883 104.749 17.1562 104.749 20.0156H98.4732V18.5039C98.4732 17.4961 98.0045 16.9922 97.067 16.9922C96.5982 16.9922 96.2525 17.1328 96.0298 17.4141C95.8072 17.6836 95.6959 18.0352 95.6959 18.4688C95.6959 18.9023 95.7955 19.3125 95.9947 19.6992C96.2056 20.0742 96.6861 20.5664 97.4361 21.1758L101.004 24.0762C102.305 25.1309 103.29 26.2383 103.958 27.3984C104.626 28.5586 104.96 30.0645 104.96 31.916C104.96 33.2051 104.725 34.4121 104.256 35.5371C103.799 36.6621 103.044 37.5703 101.989 38.2617C100.934 38.9414 99.522 39.2812 97.7525 39.2812ZM63.3711 71V43.5781H71.8965C74.123 43.5781 75.793 44.1992 76.9062 45.4414C78.0312 46.6719 78.5938 48.4766 78.5938 50.8555V61.8242C78.5938 64.7539 78.084 67.0156 77.0645 68.6094C76.0449 70.2031 74.252 71 71.6855 71H63.3711ZM69.5938 65.5332H70.666C71.8027 65.5332 72.3711 64.9824 72.3711 63.8809V51.4355C72.3711 50.4043 72.2305 49.7422 71.9492 49.4492C71.6797 49.1445 71.123 48.9922 70.2793 48.9922H69.5938V65.5332ZM81.0012 71L83.9895 43.5781H94.4837L97.4192 71H91.5657L91.1614 66.0078H87.3645L87.013 71H81.0012ZM89.0169 48.5L87.8743 61.0684H90.5813L89.2981 48.5H89.0169ZM63.3711 103V75.5781H69.5234V85.3164H72.4414V75.5781H78.5938V103H72.4414V91.1699H69.5234V103H63.3711ZM89.4387 103.281C86.9075 103.281 85.0032 102.52 83.7259 100.996C82.4485 99.4609 81.8098 97.3164 81.8098 94.5625V83.3828C81.8098 80.7227 82.4602 78.7129 83.761 77.3535C85.0735 75.9824 86.9661 75.2969 89.4387 75.2969C91.9231 75.2969 93.8157 75.9824 95.1165 77.3535C96.4173 78.7129 97.0677 80.7227 97.0677 83.3828V94.5625C97.0677 97.3164 96.429 99.4609 95.1516 100.996C93.8743 102.52 91.97 103.281 89.4387 103.281ZM89.4915 97.7617C90.0774 97.7617 90.4583 97.498 90.6341 96.9707C90.8098 96.4316 90.8977 95.7871 90.8977 95.0371V83.1016C90.8977 82.5508 90.8216 82.0352 90.6692 81.5547C90.5169 81.0625 90.136 80.8164 89.5266 80.8164C88.929 80.8164 88.5188 81.0449 88.2962 81.502C88.0852 81.9473 87.9798 82.498 87.9798 83.1543V95.0723C87.9798 95.8809 88.0735 96.5312 88.261 97.0234C88.4485 97.5156 88.8587 97.7617 89.4915 97.7617ZM100.284 103V75.5781H109.6C111.182 75.5781 112.389 75.9121 113.221 76.5801C114.065 77.248 114.639 78.168 114.944 79.3398C115.249 80.5 115.401 81.8301 115.401 83.3301C115.401 85.2168 115.143 86.7109 114.627 87.8125C114.112 88.9141 113.28 89.6699 112.131 90.0801C113.174 90.2441 113.913 90.7129 114.346 91.4863C114.792 92.2598 115.014 93.2793 115.014 94.5449V103H108.879V94.1406C108.879 93.2383 108.692 92.6816 108.317 92.4707C107.954 92.248 107.362 92.1367 106.542 92.1367V103H100.284ZM106.577 86.7754H108.071C108.926 86.7754 109.354 85.8613 109.354 84.0332C109.354 82.9316 109.26 82.2051 109.073 81.8535C108.885 81.4902 108.534 81.3086 108.018 81.3086H106.577V86.7754ZM117.316 103L120.305 75.5781H130.799L133.734 103H127.881L127.476 98.0078H123.68L123.328 103H117.316ZM125.332 80.5L124.189 93.0684H126.896L125.613 80.5H125.332Z" fill="#6E2E00"/>
<defs>
<linearGradient id="paint0_linear_142_22" x1="28" y1="97" x2="29.5" y2="107" gradientUnits="userSpaceOnUse">
<stop stop-color="#FF8000"/>
<stop offset="1" stop-color="#994D00"/>
</linearGradient>
<linearGradient id="paint1_linear_142_22" x1="26" y1="61.5" x2="26" y2="68" gradientUnits="userSpaceOnUse">
<stop stop-color="#FF8000"/>
<stop offset="1" stop-color="#994D00"/>
</linearGradient>
</defs>
</svg>
